:version 1.10
:name ASF
:units
  mass 1
  length 1
  angle deg
:documentation
  ASF file generated by Kaydara
:root
  axis xyz
  order  tx ty tz rx ry rz
  position 0 0 0
  orientation 0 0 0
:bonedata
  begin
    id 1
    name RightUpLegDummy
    direction -1 2.30186e-007 8.31532e-007
    length 4.04083
    axis 0 0 0 xyz
  end
  begin
    id 2
    name RightUpLeg
    direction -0.000919234 -0.999985 0.00544864
    length 17.4221
    axis -3.80308 -0.00076134 -0.0523649 xyz
    dof rx ry rz
  end
  begin
    id 3
    name RightLeg
    direction -0.000919271 -0.999984 -0.00555045
    length 17.1239
    axis 4.00314 0.0181274 -0.183583 xyz
    dof rx ry rz
  end
  begin
    id 4
    name RightFoot
    direction -2.57843e-005 -4.04509e-007 1
    length 6.72091
    axis 8.18909e-005 -0.122003 -0.403008 xyz
    dof rx ry rz
  end
  begin
    id 5
    name RightToes
    direction 0.00116825 -0.014069 0.9999
    length 3.85082
    axis 0.000514414 0.540638 -0.356797 xyz
    dof rx ry rz
  end
  begin
    id 6
    name SpineDummy
    direction 0.0168869 0.966876 -0.254689
    length 6.99894
    axis 0 0 0 xyz
  end
  begin
    id 7
    name Spine
    direction -0.0132008 0.999903 0.00446247
    length 11.1999
    axis -0.00148109 0.00725429 0.756411 xyz
    dof rx ry rz
  end
  begin
    id 8
    name Spine1
    direction 0 0 0
    length 0
    axis -0.000934958 0.0245693 1.46543 xyz
    dof rx ry rz
  end
  begin
    id 9
    name HEadDummy
    direction -0.0255732 0.999672 0.00128215
    length 3.43865
    axis -0.000934958 0.0245693 1.46543 xyz
  end
  begin
    id 10
    name HEad
    direction -0.0472656 0.980052 0.19304
    length 5.12695
    axis -0.000934954 0.0245693 1.46543 xyz
    dof rx ry rz
  end
  begin
    id 11
    name LeftShoulder1Dummy
    direction 0.953098 0.301717 -0.023914
    length 3.68488
    axis -0.000934958 0.0245693 1.46543 xyz
  end
  begin
    id 12
    name LeftShoulder1
    direction 0.962466 0.271167 0.0112566
    length 3.13809
    axis -0.000934958 0.0245693 1.46543 xyz
    dof rx ry rz
  end
  begin
    id 13
    name LeftArm
    direction 0.999943 0.00455037 -0.00961766
    length 11.3419
    axis -23.1648 0.685459 1.22814 xyz
    dof rx ry rz
  end
  begin
    id 14
    name LeftForeArm
    direction 0.999332 0.0131969 0.0340885
    length 8.70632
    axis -9.90633 0.618216 0.0826942 xyz
    dof rx ry rz
  end
  begin
    id 15
    name LeftHand
    direction 0.994373 -0.0366703 0.0993905
    length 5.32135
    axis 0.00675269 0.680415 0.445699 xyz
    dof rx ry rz
  end
  begin
    id 16
    name RightShoulderDummy
    direction -0.967298 0.252589 -0.0230903
    length 3.68488
    axis -0.000934958 0.0245693 1.46543 xyz
  end
  begin
    id 17
    name RightShoulder
    direction -0.975062 0.221602 0.0120823
    length 3.13809
    axis 0.216257 0.0246515 1.45863 xyz
    dof rx ry rz
  end
  begin
    id 18
    name RightArm
    direction -0.99886 -0.00851186 -0.0469687
    length 10.3947
    axis -23.196 0.23503 -0.532632 xyz
    dof rx ry rz
  end
  begin
    id 19
    name RightForeArm
    direction -0.99909 0.00114866 0.0426317
    length 8.68355
    axis -9.91764 -0.134943 0.610517 xyz
    dof rx ry rz
  end
  begin
    id 20
    name RightHand
    direction -0.992888 -0.0489538 0.10852
    length 5.28593
    axis -0.00275396 -0.197403 0.246414 xyz
    dof rx ry rz
  end
  begin
    id 21
    name LeftUpLegDummy
    direction 1 -2.30186e-007 -8.31532e-007
    length 4.04083
    axis 0 0 0 xyz
  end
  begin
    id 22
    name LeftUpLeg
    direction -0.000920097 -1 2.79241e-006
    length 17.4221
    axis -3.48782 0.00143434 -0.0532288 xyz
    dof rx ry rz
  end
  begin
    id 23
    name LeftLeg
    direction -0.000920097 -1 2.7912e-006
    length 17.1239
    axis 3.68162 -0.00806512 -0.0529896 xyz
    dof rx ry rz
  end
  begin
    id 24
    name LeftFoot
    direction -2.57845e-005 -3.987e-007 1
    length 6.72091
    axis 3.02372e-005 -0.00147829 -0.214229 xyz
    dof rx ry rz
  end
  begin
    id 25
    name LeftToes
    direction 0.00813577 -0.00488255 0.999955
    length 3.85048
    axis 3.89895e-005 -0.0014783 -0.214229 xyz
    dof rx ry rz
  end
:hierarchy
  begin
    root RightUpLegDummy SpineDummy LeftUpLegDummy
    RightUpLegDummy RightUpLeg
    RightUpLeg RightLeg
    RightLeg RightFoot
    RightFoot RightToes
    SpineDummy Spine
    Spine Spine1
    Spine1 HEadDummy LeftShoulder1Dummy RightShoulderDummy
    HEadDummy HEad
    LeftShoulder1Dummy LeftShoulder1
    LeftShoulder1 LeftArm
    LeftArm LeftForeArm
    LeftForeArm LeftHand
    RightShoulderDummy RightShoulder
    RightShoulder RightArm
    RightArm RightForeArm
    RightForeArm RightHand
    LeftUpLegDummy LeftUpLeg
    LeftUpLeg LeftLeg
    LeftLeg LeftFoot
    LeftFoot LeftToes
  end

:SAMPLES-PER-SECOND 30
:FULLY-SPECIFIED
:DEGREES
56
root  -15.4782 34.6434 -8.63397 -169.749 -2.40524 179.255
RightUpLeg  -9.28263 -9.83167 1.38205
RightLeg  6.10384 -1.30456 -0.0550365
RightFoot  2.35532 0.012523 0.0901139
RightToes  -19.2699 -0.0802726 -0.175105
Spine  -2.716 0.0577904 0.0974107
Spine1  -5.52332 0.259141 0.813558
HEad  -66.863 -0.880237 6.46143
LeftShoulder1  -1.94126e-019 -3.10601e-018 -2.51263e-017
LeftArm  -7.12365 24.6701 -84.3683
LeftForeArm  34.8849 -16.5056 -2.71305
LeftHand  -0.508893 -3.12015 7.21981
RightShoulder  -4.96962e-017 0 -2.36833e-017
RightArm  -19.6697 -22.9802 78.797
RightForeArm  59.0141 14.3848 1.15396
RightHand  -0.485064 0.463415 -9.53794
LeftUpLeg  -8.94609 -7.01755 -1.42205
LeftLeg  5.45379 10.649 0.326765
LeftFoot  3.04368 -0.0196365 0.726418
LeftToes  -16.2321 1.31424e-006 1.14295e-007
57
root  -15.4801 34.6428 -8.63436 -169.751 -2.38863 179.26
RightUpLeg  -9.29196 -9.81763 1.3804
RightLeg  6.13564 -1.32106 -0.054851
RightFoot  2.32193 0.012523 0.0901139
RightToes  -19.222 -0.0802726 -0.175105
Spine  -2.71484 0.0579326 0.0987162
Spine1  -5.52037 0.259629 0.812476
HEad  -66.7991 -0.890753 6.43845
LeftShoulder1  -1.94126e-019 -3.10601e-018 -2.51263e-017
LeftArm  -7.15399 24.665 -84.3602
LeftForeArm  34.9302 -16.465 -2.70461
LeftHand  -0.509161 -3.11707 7.18759
RightShoulder  -4.96962e-017 0 -2.36833e-017
RightArm  -19.6645 -22.9875 78.8091
RightForeArm  59.0045 14.3928 1.15143
RightHand  -0.482789 0.46101 -9.61091
LeftUpLeg  -8.94019 -7.03304 -1.42409
LeftLeg  5.45852 10.6848 0.322256
LeftFoot  3.02986 -0.0195329 0.724809
LeftToes  -16.2273 1.31424e-006 1.14295e-007
58
root  -15.4829 34.6421 -8.63454 -169.755 -2.38013 179.262
RightUpLeg  -9.29819 -9.78973 1.37492
RightLeg  6.15542 -1.32415 -0.0559937
RightFoot  2.33677 0.012523 0.0901139
RightToes  -19.3448 -0.0802726 -0.175105
Spine  -2.71251 0.0585911 0.0998651
Spine1  -5.51554 0.260444 0.81733
HEad  -66.7201 -0.920035 6.39468
LeftShoulder1  -1.94126e-019 -3.10601e-018 -2.51263e-017
LeftArm  -7.14849 24.6575 -84.3653
LeftForeArm  34.9146 -16.422 -2.69828
LeftHand  -0.508536 -3.13687 7.21665
RightShoulder  -4.96962e-017 0 -2.36833e-017
RightArm  -19.6514 -22.9854 78.8078
RightForeArm  58.9839 14.3914 1.15142
RightHand  -0.482646 0.434873 -9.5997
LeftUpLeg  -8.92993 -6.99837 -1.42793
LeftLeg  5.44883 10.6595 0.326191
LeftFoot  3.02903 -0.0194311 0.723227
LeftToes  -16.2403 1.31424e-006 1.14295e-007
59
root  -15.4846 34.6415 -8.63372 -169.764 -2.35519 179.262
RightUpLeg  -9.32742 -9.76906 1.36792
RightLeg  6.2248 -1.31825 -0.0573354
RightFoot  2.29808 0.012523 0.0901139
RightToes  -19.3159 -0.0802726 -0.175105
Spine  -2.70518 0.0598508 0.100851
Spine1  -5.50103 0.262811 0.82404
HEad  -66.6274 -0.872408 6.28457
LeftShoulder1  -1.94126e-019 -3.10601e-018 -2.51263e-017
LeftArm  -7.18939 24.6525 -84.3735
LeftForeArm  34.9139 -16.3747 -2.68971
LeftHand  -0.509247 -3.14092 7.16863
RightShoulder  -4.96962e-017 0 -2.36833e-017
RightArm  -19.6445 -22.9712 78.792
RightForeArm  58.9998 14.382 1.15358
RightHand  -0.484249 0.489006 -9.54084
LeftUpLeg  -8.92036 -6.98455 -1.43336
LeftLeg  5.45215 10.6686 0.327084
LeftFoot  3.0056 -0.0193644 0.72219
LeftToes  -16.2043 1.31424e-006 1.14295e-007
60
root  -15.4862 34.6411 -8.62909 -169.779 -2.33151 179.261
RightUpLeg  -9.39313 -9.71215 1.35508
RightLeg  6.3725 -1.34836 -0.0621443
RightFoot  2.22239 0.012523 0.0901139
RightToes  -19.314 -0.0802726 -0.175105
Spine  -2.69391 0.0635111 0.101668
Spine1  -5.47899 0.270508 0.82593
HEad  -66.5333 -0.858025 6.23034
LeftShoulder1  -1.94126e-019 -3.10601e-018 -2.51263e-017
LeftArm  -7.2434 24.618 -84.403
LeftForeArm  34.9307 -16.2498 -2.66866
LeftHand  -0.508315 -3.15564 7.21238
RightShoulder  -4.96962e-017 0 -2.36833e-017
RightArm  -19.6513 -22.9584 78.7715
RightForeArm  59.0138 14.3802 1.15408
RightHand  -0.482515 0.479187 -9.5837
LeftUpLeg  -8.91772 -7.03429 -1.44087
LeftLeg  5.47198 10.7463 0.333141
LeftFoot  3.00714 -0.0193661 0.722215
LeftToes  -16.1465 1.31424e-006 1.14295e-007
